#!OML:ASF X:\für Bonn\!DataBase\2005_08_10_Bjorn_Final\c3d\bjorn.ASF
:FULLY-SPECIFIED
:DEGREES
123
root -1.09421 18.3225 15.6394 -550.349 16.451 -537.151
lowerback -9.84322 1.05035 4.04373
upperback 8.01957 1.41705 -2.28836
thorax 14.64 1.3882 -4.48763
lowerneck -3.48234 0.54145 8.81686
upperneck 21.0555 1.67701 -2.65679
head 7.09159 1.78873 -2.16267
rclavicle 2.55438e-014 -1.90833e-014
rhumerus 46.4642 18.5982 -80.1647
rradius 79.7394
rwrist 24.8342
rhand -51.4156 39.4745
rfingers 7.12502
rthumb -23.9472 10.9479
lclavicle 2.55438e-014 -1.90833e-014
lhumerus 34.3499 -25.9411 86.3543
lradius 77.8933
lwrist 33.125
lhand -26.334 -6.85354
lfingers 7.12502
lthumb 0.223133 23.1261
rfemur 365.576 -9.42602 -343.179
rtibia 35.5567
rfoot -28.0043 9.70877
rtoes -16.3263
lfemur -8.15672 -2.07723 -5.67932
ltibia 39.3601
lfoot -15.1676 -5.84658
ltoes -19.2654
124
root -1.06833 18.3196 15.6298 -550.381 16.4945 -537.214
lowerback -9.98507 1.07481 3.95443
upperback 7.93545 1.45803 -2.34581
thorax 14.6329 1.39613 -4.4923
lowerneck -3.37153 0.521033 8.89974
upperneck 21.1362 1.6771 -2.67982
head 7.09914 1.80424 -2.18413
rclavicle 1.01877e-014 4.77083e-015
rhumerus 46.9589 18.4166 -80.0569
rradius 79.4693
rwrist 25.2718
rhand -51.5856 39.3748
rfingers 7.12502
rthumb -24.1102 10.8697
lclavicle 1.01877e-014 4.77083e-015
lhumerus 34.7409 -25.7855 86.4404
lradius 77.8931
lwrist 33.3947
lhand -26.4181 -7.32916
lfingers 7.12502
lthumb 0.141945 22.6505
rfemur 365.645 -9.33292 -343.145
rtibia 35.5613
rfoot -28.0543 9.67405
rtoes -16.3471
lfemur -8.06145 -2.12341 -5.67545
ltibia 39.3444
lfoot -15.1923 -5.75854
ltoes -19.2635
125
root -1.04339 18.3158 15.6195 -550.418 16.5805 -537.269
lowerback -10.1161 1.12469 3.89474
upperback 7.86392 1.53139 -2.40292
thorax 14.6392 1.42372 -4.50585
lowerneck -3.25358 0.497561 9.03018
upperneck 21.1666 1.67084 -2.74488
head 7.08926 1.8136 -2.22788
rclavicle 1.08586e-014 -5.08889e-014
rhumerus 47.4233 18.2087 -80.0358
rradius 79.1288
rwrist 25.803
rhand -51.7489 39.2408
rfingers 7.12502
rthumb -24.2667 10.7566
lclavicle 1.08586e-014 -5.08889e-014
lhumerus 35.1199 -25.6505 86.5096
lradius 77.834
lwrist 33.696
lhand -26.4052 -7.89274
lfingers 7.12502
lthumb 0.154357 22.0869
rfemur 365.72 -9.23665 -343.122
rtibia 35.5646
rfoot -28.1027 9.70349
rtoes -16.4014
lfemur -7.93763 -2.18101 -5.67662
ltibia 39.3342
lfoot -15.2528 -5.58481
ltoes -19.5566
126
root -1.01928 18.3129 15.61 -550.459 16.6516 -537.301
lowerback -10.2233 1.16042 3.85297
upperback 7.80848 1.58324 -2.44624
thorax 14.6473 1.44321 -4.51886
lowerneck -3.21309 0.496421 9.10318
upperneck 21.2383 1.68485 -2.76663
head 7.10721 1.83179 -2.24613
rclavicle 4.2366e-014 6.36111e-015
rhumerus 47.9164 18.0552 -79.9761
rradius 78.7005
rwrist 26.1507
rhand -51.6957 38.8893
rfingers 7.12502
rthumb -24.2158 10.3982
lclavicle 4.2366e-014 6.36111e-015
lhumerus 35.5069 -25.4813 86.6181
lradius 77.6428
lwrist 33.8856
lhand -26.3954 -8.45876
lfingers 7.12502
lthumb 0.163897 21.5209
rfemur 365.812 -9.12807 -343.062
rtibia 35.5657
rfoot -28.1711 9.67674
rtoes -16.4644
lfemur -7.8182 -2.22077 -5.64755
ltibia 39.3326
lfoot -15.3045 -5.47206
ltoes -19.662
127
root -0.996443 18.3101 15.6003 -550.493 16.7329 -537.346
lowerback -10.3314 1.21036 3.81304
upperback 7.76264 1.65537 -2.48755
thorax 14.6699 1.47331 -4.52578
lowerneck -3.19607 0.488837 9.18184
upperneck 21.2938 1.68746 -2.81367
head 7.12338 1.84074 -2.27443
rclavicle 8.51047e-014 -2.38542e-014
rhumerus 48.4032 17.8871 -79.9209
rradius 78.2476
rwrist 26.4125
rhand -51.4362 38.2467
rfingers 7.12502
rthumb -23.967 9.72273
lclavicle 8.51047e-014 -2.38542e-014
lhumerus 35.8956 -25.3378 86.7198
lradius 77.4234
lwrist 34.0423
lhand -26.4356 -8.96231
lfingers 7.12502
lthumb 0.125043 21.0174
rfemur 365.885 -9.07328 -343.044
rtibia 35.5661
rfoot -28.2252 9.67519
rtoes -16.7195
lfemur -7.7143 -2.29201 -5.64899
ltibia 39.335
lfoot -15.3453 -5.28944
ltoes -19.8259
